HIERARCHY
ROOT Hips
{
	OFFSET -13.091600 -28.302996 44.698402
	CHANNELS 6 Xposition Yposition Zposition Zrotation Xrotation Yrotation
	JOINT Chest
	{
		OFFSET -0.673000 0.623899 5.369202
		CHANNELS 6 Xposition Yposition Zposition Zrotation Xrotation Yrotation
		JOINT Chest2
		{
			OFFSET 0.000000 0.000000 4.415001
			CHANNELS 6 Xposition Yposition Zposition Zrotation Xrotation Yrotation
			JOINT Neck
			{
				OFFSET 0.000000 0.000002 10.273300
				CHANNELS 6 Xposition Yposition Zposition Zrotation Xrotation Yrotation
				JOINT Head
				{
					OFFSET 0.000000 0.000000 2.173897
					CHANNELS 6 Xposition Yposition Zposition Zrotation Xrotation Yrotation
					End Site
					{
						OFFSET 0.000000 0.000000 9.961800
					}
				}
			}
			JOINT LeftCollar
			{
				OFFSET 2.359900 -0.565201 5.928101
				CHANNELS 6 Xposition Yposition Zposition Zrotation Xrotation Yrotation
				JOINT LeftShoulder
				{
					OFFSET 5.443700 0.000000 0.000000
					CHANNELS 6 Xposition Yposition Zposition Zrotation Xrotation Yrotation
					JOINT LeftElbow
					{
						OFFSET 0.000000 0.000000 -10.615799
						CHANNELS 6 Xposition Yposition Zposition Zrotation Xrotation Yrotation
						JOINT LeftWrist
						{
							OFFSET 0.000000 -0.000002 -13.110302
							CHANNELS 6 Xposition Yposition Zposition Zrotation Xrotation Yrotation
							End Site
							{
								OFFSET 0.000000 0.000000 -2.173901
							}
						}
					}
				}
			}
			JOINT RightCollar
			{
				OFFSET -2.636600 -1.718800 6.889698
				CHANNELS 6 Xposition Yposition Zposition Zrotation Xrotation Yrotation
				JOINT RightShoulder
				{
					OFFSET -4.139101 0.000000 0.000000
					CHANNELS 6 Xposition Yposition Zposition Zrotation Xrotation Yrotation
					JOINT RightElbow
					{
						OFFSET 0.000000 0.000000 -10.471802
						CHANNELS 6 Xposition Yposition Zposition Zrotation Xrotation Yrotation
						JOINT RightWrist
						{
							OFFSET 0.000000 0.000000 -12.281898
							CHANNELS 6 Xposition Yposition Zposition Zrotation Xrotation Yrotation
							End Site
							{
								OFFSET 0.000000 -0.000002 -2.173901
							}
						}
					}
				}
			}
		}
	}
	JOINT LeftHip
	{
		OFFSET 2.273400 0.176701 -2.518002
		CHANNELS 6 Xposition Yposition Zposition Zrotation Xrotation Yrotation
		JOINT LeftKnee
		{
			OFFSET 0.000000 -0.000002 -20.456402
			CHANNELS 6 Xposition Yposition Zposition Zrotation Xrotation Yrotation
			JOINT LeftAnkle
			{
				OFFSET 0.000000 -0.000002 -16.635300
				CHANNELS 6 Xposition Yposition Zposition Zrotation Xrotation Yrotation
				End Site
				{
					OFFSET 0.000000 -8.812399 0.000001
				}
			}
		}
	}
	JOINT RightHip
	{
		OFFSET -1.914800 0.018101 -2.699299
		CHANNELS 6 Xposition Yposition Zposition Zrotation Xrotation Yrotation
		JOINT RightKnee
		{
			OFFSET 0.000000 -0.000002 -20.148901
			CHANNELS 6 Xposition Yposition Zposition Zrotation Xrotation Yrotation
			JOINT RightAnkle
			{
				OFFSET 0.000000 -0.000002 -16.838301
				CHANNELS 6 Xposition Yposition Zposition Zrotation Xrotation Yrotation
				End Site
				{
					OFFSET 0.000000 -8.328398 0.000001
				}
			}
		}
	}
}
MOTION
Frames: 6
Frame Time: 0.041667
-10.770999 -56.533302 16.596603 720.905266 15.796033 12.306409 -0.672998 0.623893 5.369213 -6.656183 3.670430 4.318178 0.000002 -0.000005 4.415006 -2.624974 -6.061344 -0.995730 0.000001 0.000001 10.273297 56.331623 -20.777748 -1.327654 -0.000006 0.000000 2.173900 0.833422 -4.932609 5.420731 2.359899 -0.565197 5.928100 -11.576699 11.994102 -7.321090 5.443697 -0.000000 0.000001 -31.242327 7.994569 -97.015529 0.000007 0.000004 -10.615797 636.474074 -106.661662 273.153308 0.000004 -0.000003 -13.110296 -128.669385 -168.936601 217.240737 -2.636601 -1.718804 6.889702 164.263331 -171.772605 185.734523 -4.139096 -0.000001 0.000007 88.944711 -426.028678 168.137428 0.000002 0.000001 -10.471788 -40.682857 -13.819313 -13.746458 0.000001 0.000001 -12.281895 1.126946 4.504676 34.225931 2.273396 0.176693 -2.517999 -20.193406 -164.508439 -43.659570 -0.000001 -0.000008 -20.456390 30.636762 187.740740 -32.780892 -0.000009 -0.000010 -16.635296 81.298683 -0.501563 42.261840 -1.914794 0.018100 -2.699293 26.466319 183.369788 113.520715 0.000003 -0.000008 -20.148905 222.580265 -8.713088 -126.124292 0.000000 -0.000001 -16.838293 -103.687804 -0.708584 -38.762485
-10.784897 -56.348801 16.850506 721.255081 15.485232 12.211162 -0.673003 0.623899 5.369214 -7.020264 4.314913 4.554648 0.000001 -0.000003 4.415007 -2.193936 -6.070506 -1.002494 0.000001 0.000001 10.273312 56.024978 -20.830656 -1.314457 -0.000001 -0.000002 2.173898 0.816446 -4.914140 5.433096 2.359899 -0.565208 5.928104 -11.705477 12.137474 -7.563774 5.443700 -0.000005 -0.000001 -31.443961 7.800035 -97.368049 0.000003 0.000000 -10.615792 630.521154 -106.805533 266.679053 0.000009 0.000005 -13.110296 -129.266070 -168.782157 217.450164 -2.636605 -1.718801 6.889703 163.856211 -171.672638 185.351158 -4.139096 -0.000001 0.000006 92.508403 -425.181571 170.432180 0.000010 0.000002 -10.471799 -39.702035 -13.831162 -13.569378 0.000000 -0.000005 -12.281895 2.002883 4.067171 33.397460 2.273395 0.176699 -2.518001 -21.059322 -163.489211 -44.045995 -0.000001 -0.000005 -20.456398 30.118266 187.008489 -33.567685 -0.000008 -0.000008 -16.635300 80.872145 -0.406541 42.254709 -1.914795 0.018106 -2.699293 27.711435 184.677756 114.106370 0.000003 -0.000004 -20.148899 221.431564 -7.841227 -126.064993 0.000004 0.000000 -16.838303 -103.104506 -0.656583 -38.333631
-10.803598 -56.149902 17.157803 721.617573 15.246763 12.078791 -0.673000 0.623898 5.369211 -7.423196 4.920476 4.825010 0.000001 -0.000009 4.415005 -1.711397 -6.097983 -1.008675 0.000004 0.000006 10.273302 55.653542 -20.864660 -1.291222 -0.000001 -0.000001 2.173910 0.823897 -4.887885 5.455195 2.359900 -0.565195 5.928101 -11.748198 12.251280 -7.896114 5.443702 0.000001 -0.000000 -31.781973 7.681323 -97.677600 0.000002 0.000005 -10.615799 624.347592 -107.196684 259.872060 0.000000 -0.000004 -13.110299 -129.972066 -168.597195 217.664988 -2.636604 -1.718795 6.889702 163.482299 -171.550610 185.049168 -4.139092 0.000005 0.000001 95.213889 -424.343233 171.976049 -0.000003 -0.000006 -10.471806 -38.263976 -14.064147 -13.398445 -0.000002 -0.000001 -12.281904 2.391681 3.609954 32.339546 2.273396 0.176705 -2.518003 -22.102501 -162.353310 -44.490944 0.000003 -0.000010 -20.456398 29.557381 186.152530 -34.492718 -0.000008 -0.000011 -16.635300 80.475263 -0.214857 42.257783 -1.914799 0.018103 -2.699299 29.255538 186.146192 114.774758 0.000000 -0.000008 -20.148897 220.130481 -6.673889 -125.971528 0.000003 -0.000002 -16.838305 -102.400259 -0.539567 -37.924134
-10.828097 -55.936005 17.515701 722.004325 15.074006 12.239872 -0.673000 0.623901 5.369214 -7.823553 5.526681 4.744810 0.000003 -0.000000 4.415010 -1.206232 -6.131179 -1.013124 0.000004 0.000000 10.273304 55.255547 -20.808665 -1.227413 0.000004 0.000001 2.173897 0.849678 -4.924650 5.481463 2.359899 -0.565200 5.928096 -11.794833 12.365902 -8.173194 5.443698 -0.000001 0.000002 -32.133404 7.606722 -98.032380 0.000001 0.000009 -10.615789 618.207307 -107.849350 253.026024 -0.000001 -0.000001 -13.110302 -130.772400 -168.389011 217.879141 -2.636603 -1.718803 6.889705 163.100355 -171.428172 184.733271 -4.139096 -0.000001 0.000000 97.450072 -423.347583 173.049318 0.000001 -0.000002 -10.471794 -37.741576 -14.262601 -13.537023 -0.000010 -0.000003 -12.281898 3.381310 3.231161 31.520128 2.273404 0.176702 -2.518000 -23.242196 -160.950075 -44.677545 0.000002 -0.000011 -20.456396 29.053794 185.263417 -35.524336 -0.000011 0.000002 -16.635298 80.227149 0.027844 42.269787 -1.914797 0.018107 -2.699296 31.177201 187.633138 115.833984 0.000004 -0.000004 -20.148903 218.572679 -5.318556 -125.853653 0.000001 -0.000005 -16.838303 -101.700888 -0.358946 -37.525964
-10.859198 -55.709602 17.918901 722.370205 14.968423 12.160056 -0.673002 0.623899 5.369218 -8.230626 6.052659 4.866378 -0.000001 -0.000001 4.415012 -0.673691 -6.179195 -1.015452 0.000000 -0.000002 10.273301 54.922272 -20.700041 -1.137153 0.000000 -0.000005 2.173901 0.814481 -5.004534 5.518037 2.359897 -0.565201 5.928103 -11.776192 12.465333 -8.487090 5.443695 -0.000006 -0.000008 -32.565755 7.563587 -98.337710 0.000002 0.000000 -10.615804 612.327443 -108.690180 246.321511 -0.000001 0.000002 -13.110306 -131.611079 -168.172931 218.170599 -2.636605 -1.718799 6.889702 162.783134 -171.300393 184.586641 -4.139092 -0.000000 -0.000005 99.228134 -422.316662 173.687749 -0.000003 -0.000005 -10.471790 -37.618653 -14.458899 -13.778654 -0.000002 -0.000001 -12.281902 4.614742 2.863208 30.699501 2.273398 0.176699 -2.517996 -24.587764 -159.542482 -45.131397 0.000001 -0.000003 -20.456394 28.612444 184.358513 -36.651710 -0.000004 -0.000006 -16.635298 80.151361 0.349169 42.245970 -1.914799 0.018101 -2.699291 33.457753 189.377718 116.818392 -0.000001 0.000002 -20.148905 216.682697 -3.969861 -125.693499 -0.000000 -0.000003 -16.838306 -101.149002 -0.139082 -37.295066
-10.897800 -55.472404 18.362301 722.733407 15.020447 12.042658 -0.673005 0.623903 5.369215 -8.636806 6.363921 4.928432 0.000001 -0.000006 4.414999 -0.058780 -6.221328 -1.006541 0.000001 0.000004 10.273301 54.465674 -20.397117 -1.049189 -0.000005 -0.000005 2.173897 0.789948 -5.210046 5.574701 2.359897 -0.565197 5.928098 -11.950948 12.743482 -8.596259 5.443695 0.000004 -0.000000 -32.807912 7.529980 -98.858573 0.000006 0.000003 -10.615791 607.211631 -109.834517 240.257368 0.000006 -0.000007 -13.110305 -132.507774 -167.853483 218.539826 -2.636603 -1.718803 6.889695 162.510513 -171.161986 184.686375 -4.139097 0.000003 0.000007 100.368831 -421.517366 173.957050 -0.000001 -0.000004 -10.471783 -38.111011 -14.696168 -14.500152 0.000006 -0.000003 -12.281899 6.165974 2.542851 29.716261 2.273397 0.176705 -2.517996 -26.075641 -158.142881 -45.598893 -0.000001 -0.000006 -20.456390 28.273831 183.463990 -37.867334 -0.000001 -0.000005 -16.635298 80.269073 0.762544 42.189542 -1.914801 0.018106 -2.699290 36.051149 191.173771 117.870050 0.000002 -0.000003 -20.148903 214.723567 -2.204484 -125.495519 -0.000001 0.000001 -16.838295 -100.371706 0.135640 -36.867606
